Coordinates
version=1
nRows=29
nColumns=24
inDegrees=yes

Units are S.I. units (second, meters, Newtons, ...)
Angles are in degrees.

endheader
time	pelvis_tilt	pelvis_list	pelvis_rotation	pelvis_tx	pelvis_ty	pelvis_tz	hip_flexion_r	hip_adduction_r	hip_rotation_r	knee_angle_r	ankle_angle_r	subtalar_angle_r	mtp_angle_r	hip_flexion_l	hip_adduction_l	hip_rotation_l	knee_angle_l	ankle_angle_l	subtalar_angle_l	mtp_angle_l	lumbar_extension	lumbar_bending	lumbar_rotation
      0.54200000	     -1.57014679	      1.57217336	      7.87617380	     -0.75998748	      0.89277145	      0.29650928	     26.42846992	     -1.54129952	     -9.65433566	     -2.53936227	      3.02149312	      0.19724495	      3.71701747	    -15.93115879	      1.53247811	      5.35903802	     -8.49892912	     14.99447710	      1.62038621	      9.85503484	     -6.16998952	     -2.89296886	     -9.65706514
      0.54616667	     -1.60508867	      1.55060850	      7.94563010	     -0.75421339	      0.89175340	      0.29678720	     26.55196722	     -1.46665219	     -9.32897931	     -3.00435373	      3.03120180	     -0.03328564	      3.69250687	    -15.94602137	      1.42951012	      5.37534680	     -9.19942889	     15.15575039	      1.77455141	      9.90466257	     -6.11568916	     -2.80164255	     -9.63496211
      0.55033333	     -1.64768741	      1.49048674	      8.00137357	     -0.74837972	      0.89074808	      0.29712429	     26.68748671	     -1.34173098	     -9.01071267	     -3.53928242	      2.91476484	     -0.36826780	      3.67157048	    -15.90928260	      1.27589891	      5.22433813	     -9.98274690	     15.25276556	      2.14557387	     10.01628013	     -6.05793119	     -2.68500098	     -9.58435522
      0.55450000	     -1.65876657	      1.43416789	      8.04921009	     -0.74251040	      0.88981113	      0.29745243	     26.79354147	     -1.21469715	     -8.67756195	     -4.15569602	      2.85747775	     -0.72791251	      3.67374703	    -15.90275253	      1.13110435	      5.13377001	    -10.78746321	     15.39430825	      2.40338086	     10.13674667	     -6.00092715	     -2.53258412	     -9.52961930
      0.55866667	     -1.69232742	      1.35846860	      8.08856914	     -0.73659529	      0.88888420	      0.29782159	     26.93491098	     -1.06316692	     -8.36226762	     -4.84624409	      2.69171508	     -1.15222791	      3.68932312	    -15.84428592	      0.96380877	      4.97630435	    -11.63175723	     15.43394696	      2.71926789	     10.29705557	     -5.93338007	     -2.38567908	     -9.45267753
      0.56283333	     -1.70767214	      1.26715308	      8.10926319	     -0.73063533	      0.88800180	      0.29822542	     27.06028920	     -0.88283673	     -8.04419493	     -5.58415736	      2.47596758	     -1.63535235	      3.72066287	    -15.79371164	      0.77837135	      4.78972896	    -12.51090826	     15.45925217	      3.05610446	     10.50695542	     -5.87521630	     -2.20645172	     -9.35762028
      0.56700000	     -1.64767895	      1.12597138	      8.13115956	     -0.72457169	      0.88727368	      0.29864804	     27.07481877	     -0.63561558	     -7.77610822	     -6.29604362	      2.14312691	     -2.17395637	      3.84616020	    -15.78693160	      0.50890018	      4.44601743	    -13.45087798	     15.46580163	      3.61581878	     11.19107044	     -5.87901559	     -1.94382032	     -9.23985558
      0.57116667	     -1.64612407	      1.00380427	      8.12866105	     -0.71851255	      0.88648470	      0.29911365	     27.18658361	     -0.40388878	     -7.45709662	     -7.10979463	      1.80046480	     -2.80278058	      4.09022292	    -15.71616544	      0.28517359	      4.19861201	    -14.39794917	     15.41758210	      3.96857829	     12.41370507	     -5.81932760	     -1.71888153	     -9.08567415
      0.57533333	     -1.69905268	      0.95177550	      8.11989989	     -0.71249184	      0.88567282	      0.29950868	     27.41290175	     -0.26879020	     -7.21903341	     -8.08100779	      1.56068228	     -3.21046317	      4.12199375	    -15.61269596	      0.17905012	      4.16361748	    -15.30148131	     15.19249369	      3.92760827	     12.58871975	     -5.69343216	     -1.58901063	     -9.01729790
      0.57950000	     -1.69391460	      0.81385182	      8.11108775	     -0.70636741	      0.88497068	      0.30000149	     27.53803111	     -0.02211397	     -6.98418866	     -8.97280716	      1.13308602	     -3.76862313	      5.00335130	    -15.50066970	     -0.07050262	      3.86218275	    -16.32229531	     14.99109752	      4.26490260	     17.09103135	     -5.63415164	     -1.36078478	     -8.91671930
      0.58366667	     -1.72735332	      0.71601407	      8.07825826	     -0.70025024	      0.88426638	      0.30047041	     27.73523262	      0.18173131	     -6.72597041	     -9.95525133	      0.77105755	     -4.31797192	      4.99757032	    -15.36362440	     -0.23284182	      3.73364425	    -17.32532134	     14.69596252	      4.29653615	     17.14796913	     -5.53291073	     -1.16323892	     -8.73270493
      0.58783333	     -1.74576845	      0.60081747	      8.04123052	     -0.69410128	      0.88362610	      0.30097238	     27.91034483	      0.40881259	     -6.49011814	    -10.93153813	      0.35314812	     -4.88007171	      4.99897428	    -15.20256621	     -0.42762710	      3.52771537	    -18.39922441	     14.39218133	      4.47030853	     17.27006711	     -5.43464720	     -0.94876407	     -8.55157669
      0.59200000	     -1.75697663	      0.48227110	      7.99753078	     -0.68793214	      0.88303729	      0.30148314	     28.08624033	      0.63906830	     -6.27766367	    -11.93801075	     -0.04450709	     -5.40008837	      5.00619846	    -15.02457695	     -0.62702374	      3.31124823	    -19.51652863	     14.03400931	      4.62629420	     17.44218884	     -5.34111937	     -0.72326200	     -8.37987770
      0.59616667	     -1.75893983	      0.36119933	      7.94840808	     -0.68173520	      0.88251764	      0.30199848	     28.25631952	      0.87051489	     -6.09855259	    -12.96655318	     -0.41703006	     -5.86564263	      5.01581032	    -14.83435834	     -0.82877680	      3.09441789	    -20.66520706	     13.59792624	      4.74833560	     17.65357683	     -5.26002083	     -0.49746232	     -8.21295305
      0.60033333	     -1.70642681	      0.22817295	      7.89807492	     -0.67553659	      0.88211765	      0.30256076	     28.34917594	      1.12926787	     -5.89933870	    -13.95872971	     -0.79138171	     -6.40857502	      5.30898720	    -14.65163172	     -1.07315503	      2.77113725	    -21.89016264	     13.10544893	      4.94027627	     22.35579246	     -5.25711792	     -0.26963195	     -8.09946644
      0.60450000	     -1.73914281	      0.10833803	      7.83814889	     -0.66930310	      0.88166072	      0.30305690	     28.57282212	      1.34059830	     -5.80368998	    -15.05435969	     -1.07256427	     -6.68195887	      5.30151961	    -14.38705749	     -1.25701601	      2.59908583	    -23.09782384	     12.50768089	      4.90993401	     22.40906390	     -5.11670756	     -0.02207178	     -7.89632548
      0.60866667	     -1.74365723	      0.00155451	      7.77413850	     -0.66310058	      0.88128056	      0.30359114	     28.76142530	      1.54823704	     -5.68079710	    -16.14907676	     -1.28292680	     -6.98956933	      5.29389423	    -14.10655013	     -1.43781479	      2.39648411	    -24.38286947	     11.88673991	      4.93031212	     22.50702627	     -5.03351603	      0.19119697	     -7.71996898
      0.61283333	     -1.74669093	     -0.11483949	      7.71271334	     -0.65689201	      0.88095416	      0.30413403	     28.94254115	      1.76121629	     -5.58301441	    -17.23796341	     -1.44684393	     -7.24801575	      5.28412522	    -13.78854077	     -1.63714909	      2.17080107	    -25.72287353	     11.22499731	      4.96676226	     22.65408461	     -4.95139200	      0.41524771	     -7.54500225
      0.61700000	     -1.74366571	     -0.22172580	      7.65304049	     -0.65071269	      0.88066750	      0.30468768	     29.11776942	      1.95810365	     -5.51477642	    -18.33552963	     -1.56407254	     -7.46470586	      5.26370287	    -13.43227512	     -1.83750341	      1.91470320	    -27.13905896	     10.56433644	      5.03049458	     22.94740179	     -4.87708240	      0.60644145	     -7.34116858
      0.62116667	     -1.69775752	     -0.36136491	      7.58879701	     -0.64446600	      0.88051080	      0.30525359	     29.21956262	      2.19701811	     -5.45835162	    -19.39118931	     -1.56157639	     -7.62000172	      4.89826194	    -13.11265589	     -2.08487289	      1.64617082	    -28.53251950	      9.68810719	      4.97116869	     27.61860771	     -4.84770160	      0.87338868	     -7.16522766
      0.62533333	     -1.67432852	     -0.48270910	      7.54390402	     -0.63826697	      0.88036794	      0.30578647	     29.34243213	      2.39384734	     -5.45500639	    -20.44843865	     -1.50909500	     -7.67879355	      4.89999384	    -12.72061542	     -2.31132513	      1.42007563	    -30.00597042	      8.83421367	      4.95174523	     27.65914298	     -4.79574361	      1.09948181	     -7.06530141
      0.62950000	     -1.63843297	     -0.61231359	      7.49825487	     -0.63206555	      0.88028336	      0.30633061	     29.43702670	      2.59821356	     -5.47074589	    -21.48444601	     -1.37519591	     -7.69269698	      4.89563172	    -12.31196762	     -2.55266699	      1.19490396	    -31.51457433	      7.93985789	      4.91320918	     27.74409441	     -4.75672144	      1.33714084	     -6.94166077
      0.63366667	     -1.58789100	     -0.74823629	      7.45715530	     -0.62587181	      0.88025892	      0.30687839	     29.49407750	      2.80635441	     -5.50973822	    -22.48145217	     -1.17707679	     -7.66007898	      4.88534145	    -11.88605723	     -2.81324059	      0.95638094	    -33.06007233	      6.97191123	      4.86187765	     27.86307807	     -4.73510167	      1.58270316	     -6.82556213
      0.63783333	     -1.52663494	     -0.89037943	      7.42393872	     -0.61968439	      0.88029025	      0.30742281	     29.51989100	      3.01327041	     -5.58308065	    -23.44694342	     -0.90746591	     -7.57651048	      4.86616898	    -11.43774600	     -3.09345659	      0.71032056	    -34.63673582	      5.97574719	      4.80555283	     28.02934577	     -4.72108117	      1.83505099	     -6.71920377
      0.64200000	     -1.41978611	     -1.05642979	      7.39664728	     -0.61349612	      0.88045809	      0.30797122	     29.44436644	      3.25719273	     -5.64246085	    -24.30523132	     -0.61640198	     -7.54671335	      4.86075947	    -11.01903354	     -3.40673707	      0.48919515	    -36.21309899	      4.87661752	      4.67605271	     28.10351503	     -4.77168477	      2.14042930	     -6.65248213
      0.64616667	     -1.36356558	     -1.18839585	      7.37336431	     -0.60737452	      0.88053483	      0.30850077	     29.44333346	      3.43466232	     -5.78513099	    -25.21996551	     -0.20452805	     -7.30996611	      4.82305841	    -10.49632449	     -3.68913295	      0.24936348	    -37.85887873	      3.82244149	      4.59156384	     28.33799347	     -4.75658228	      2.37337324	     -6.55076190
      0.65033333	     -1.25962133	     -1.36455971	      7.35663459	     -0.60124749	      0.88075384	      0.30905993	     29.31777772	      3.67546040	     -5.90659766	    -25.97020535	      0.16169967	     -7.14750838	      4.79321587	     -9.99792712	     -4.04496092	     -0.02163695	    -39.51163311	      2.64678971	      4.43432148	     28.49996052	     -4.79288344	      2.64599941	     -6.49148467
      0.65450000	     -1.14587788	     -1.53668085	      7.34412052	     -0.59515933	      0.88101419	      0.30961699	     29.16156151	      3.90958053	     -6.05181875	    -26.68776149	      0.59562331	     -6.96778569	      4.76376084	     -9.48847543	     -4.39858125	     -0.26340798	    -41.16494927	      1.46251222	      4.24962108	     28.63709558	     -4.84419034	      2.93413130	     -6.43243062
      0.65866667	     -1.01934052	     -1.72171672	      7.33748210	     -0.58910347	      0.88133737	      0.31018295	     28.94581576	      4.16871282	     -6.17134751	    -27.30928703	      1.04418742	     -6.88196493	      4.75847928	     -8.96911456	     -4.77401177	     -0.49263687	    -42.82039450	      0.24417462	      4.05051011	     28.67615646	     -4.92100205	      3.24821322	     -6.37972802
